<svg xmlns="http://www.w3.org/2000/svg" id="ba82b16a-8560-4ca1-97b9-ac41bb56bdea" data-name="Layer 1" viewBox="0 0 16.9987 16.9983"><defs><style>.b246dd63-e0cb-4127-bd6e-d273cd4a8c0b{fill:#191919;}</style></defs><path d="M9.5724,8.4983l7.2051-7.2046A.758.758,0,0,0,15.7053.2219L8.5007,7.4265,1.2892.2151A.7579.7579,0,0,0,.2243,1.2937L7.4289,8.4983.23,15.6975a.76.76,0,0,0-.0181,1.0713.75.75,0,0,0,.5405.23.7814.7814,0,0,0,.5435-.2236L8.5007,9.5706,15.71,16.78a.7691.7691,0,0,0,.5411.2149.7583.7583,0,0,0,.5263-1.291Z"></path><path class="b246dd63-e0cb-4127-bd6e-d273cd4a8c0b" d="M.9367,16.4055.9313,16.41Z"></path></svg>