<svg xmlns="http://www.w3.org/2000/svg" width="42" height="51" viewBox="0 0 42 51" fill="none"><path d="M3.45764 31.1182C3.29582 31.1182 3.14062 31.1927 3.02619 31.3253C2.91176 31.4579 2.84747 31.6378 2.84747 31.8254C2.84747 32.013 2.91176 32.1929 3.02619 32.3255C3.14062 32.4581 3.29582 32.5326 3.45764 32.5326H6.50849C6.67032 32.5326 6.82552 32.4581 6.93994 32.3255C7.05437 32.1929 7.11866 32.013 7.11866 31.8254C7.11866 31.6378 7.05437 31.4579 6.93994 31.3253C6.82552 31.1927 6.67032 31.1182 6.50849 31.1182H3.45764Z" fill="white"></path><path d="M17.1494 16.2666H14.8844C14.7128 16.2666 14.5482 16.3411 14.4268 16.4737C14.3055 16.6064 14.2373 16.7863 14.2373 16.9738C14.2373 17.1614 14.3055 17.3413 14.4268 17.4739C14.5482 17.6066 14.7128 17.6811 14.8844 17.6811H17.1494C17.3211 17.6811 17.4857 17.6066 17.6071 17.4739C17.7284 17.3413 17.7966 17.1614 17.7966 16.9738C17.7966 16.7863 17.7284 16.6064 17.6071 16.4737C17.4857 16.3411 17.3211 16.2666 17.1494 16.2666Z" fill="white"></path><path d="M14.2373 11.9242H14.3164C14.4842 11.9242 14.6452 11.8549 14.7638 11.7315C14.8825 11.6081 14.9492 11.4408 14.9492 11.2663C14.9492 11.0918 14.8825 10.9245 14.7638 10.8011C14.6452 10.6777 14.4842 10.6084 14.3164 10.6084H9.88701C9.71919 10.6084 9.55824 10.6777 9.43958 10.8011C9.32091 10.9245 9.25424 11.0918 9.25424 11.2663C9.25424 11.4408 9.32091 11.6081 9.43958 11.7315C9.55824 11.8549 9.71919 11.9242 9.88701 11.9242H9.96611C9.96611 12.5131 10.1911 13.0779 10.5916 13.4943C10.9921 13.9107 11.5353 14.1446 12.1017 14.1446C12.6681 14.1446 13.2113 13.9107 13.6118 13.4943C14.0123 13.0779 14.2373 12.5131 14.2373 11.9242ZM11.2316 11.9242H12.9718C12.9718 12.1641 12.8801 12.3942 12.7169 12.5639C12.5538 12.7335 12.3325 12.8288 12.1017 12.8288C11.8709 12.8288 11.6496 12.7335 11.4865 12.5639C11.3233 12.3942 11.2316 12.1641 11.2316 11.9242Z" fill="white"></path><path d="M17.0057 11.9242H17.0848C17.0848 12.5131 17.3098 13.0779 17.7103 13.4943C18.1108 13.9107 18.654 14.1446 19.2204 14.1446C19.7867 14.1446 20.3299 13.9107 20.7304 13.4943C21.1309 13.0779 21.3559 12.5131 21.3559 11.9242H21.435C21.6029 11.9242 21.7638 11.8549 21.8825 11.7315C22.0011 11.6081 22.0678 11.4408 22.0678 11.2663C22.0678 11.0918 22.0011 10.9245 21.8825 10.8011C21.7638 10.6777 21.6029 10.6084 21.435 10.6084H17.0057C16.8378 10.6084 16.6769 10.6777 16.5582 10.8011C16.4396 10.9245 16.3729 11.0918 16.3729 11.2663C16.3729 11.4408 16.4396 11.6081 16.5582 11.7315C16.6769 11.8549 16.8378 11.9242 17.0057 11.9242ZM20.0904 11.9242C20.0904 12.1641 19.9987 12.3942 19.8356 12.5639C19.6724 12.7335 19.4511 12.8288 19.2204 12.8288C18.9896 12.8288 18.7683 12.7335 18.6051 12.5639C18.442 12.3942 18.3503 12.1641 18.3503 11.9242H20.0904Z" fill="white"></path><path d="M0.648788 35.3621C0.820857 35.3621 0.985879 35.2944 1.10755 35.1738C1.22922 35.0532 1.29758 34.8897 1.29758 34.7191V29.0773C1.62197 24.3516 7.32806 22.9371 8.41478 22.7121C7.74328 30.2667 10.5817 31.3919 10.9126 31.5044C11.02 31.5386 11.1346 31.5444 11.2449 31.5212C11.3553 31.4981 11.4577 31.4469 11.5419 31.3726L15.7818 27.6467H15.8953L20.1124 31.363C20.1124 31.3019 20.1124 31.244 20.1124 31.1829C20.1131 30.6959 20.1456 30.2095 20.2097 29.7267L17.4427 27.2963C18.6948 26.6534 19.8691 25.2292 20.8618 24.0269C21.2056 23.6122 21.6371 23.0882 21.955 22.7668C22.0263 23.5544 22.0588 24.2584 22.0588 24.8917C22.4293 24.3524 22.846 23.8458 23.3045 23.3776C23.2893 23.1632 23.272 22.9339 23.2526 22.6896C23.3369 22.6896 23.5769 22.7507 23.8754 22.8311C24.2677 22.4815 24.6839 22.1592 25.1211 21.8666C24.5687 21.6795 24.004 21.5302 23.431 21.4198C22.1334 21.1851 21.4846 20.1918 21.1278 19.327C24.4042 15.7522 25.6271 9.27773 25.6271 5.78652V4.39454C25.6263 3.2293 25.1588 2.11202 24.3273 1.28807C23.4959 0.46412 22.3685 0.000851476 21.1927 0L10.5979 0C9.42212 0.000851476 8.29469 0.46412 7.46326 1.28807C6.63182 2.11202 6.16434 3.2293 6.16348 4.39454V5.76402L5.34601 6.64164C5.10379 6.90422 4.94409 7.23111 4.88647 7.58226C4.82886 7.93342 4.87582 8.2936 5.02162 8.61871C5.14588 8.91601 5.35456 9.17116 5.62233 9.3532C5.89009 9.53524 6.20543 9.63634 6.53005 9.64421C7.10098 12.9554 8.38558 16.8388 10.6661 19.3238C10.3222 20.1885 9.65721 21.1787 8.37261 21.4101C8.29151 21.4101 0.392517 22.7828 0 29.0194C0 29.0194 0 29.0451 0 29.058V34.7191C0 34.8036 0.0167814 34.8872 0.049386 34.9652C0.0819907 35.0432 0.12978 35.1141 0.190026 35.1738C0.250271 35.2335 0.321793 35.2808 0.400507 35.3131C0.479222 35.3455 0.563588 35.3621 0.648788 35.3621ZM7.46106 4.39454C7.46192 3.57034 7.79269 2.78014 8.38078 2.19734C8.96888 1.61454 9.76626 1.28675 10.5979 1.28589H21.1927C22.0243 1.28675 22.8217 1.61454 23.4098 2.19734C23.9979 2.78014 24.3287 3.57034 24.3295 4.39454V5.14358H7.46106V4.39454ZM6.21214 8.10113C6.16705 8.00534 6.15131 7.89854 6.16687 7.79396C6.18244 7.68939 6.22864 7.59164 6.29973 7.51284L7.30859 6.42947H23.95L23.7878 6.75095C23.5823 7.21923 23.2459 7.61944 22.8182 7.90428C22.3905 8.18911 21.8895 8.34666 21.3743 8.35831H6.56573C6.48754 8.35562 6.41198 8.32965 6.34891 8.28377C6.28584 8.2379 6.23818 8.17425 6.21214 8.10113ZM7.86655 9.64421H21.3743C21.8831 9.64263 22.3865 9.54158 22.8557 9.34685C23.325 9.15212 23.7509 8.86753 24.109 8.50941C23.4439 13.2415 21.1472 20.3975 15.8953 20.5743C11.0489 20.4104 8.71971 14.3056 7.86655 9.64421ZM11.6587 20.2528C12.8416 21.244 14.3276 21.8104 15.8758 21.8602H15.9148C17.463 21.8104 18.949 21.244 20.1319 20.2528C20.3947 20.7969 20.7578 21.2875 21.2024 21.6995C20.7219 22.1712 20.2733 22.6738 19.8594 23.204C18.8148 24.4641 17.2578 26.3608 16.1321 26.3608H15.5352C14.4128 26.3608 12.846 24.4641 11.8079 23.2104C11.4039 22.7028 10.9707 22.2187 10.5104 21.7605C10.9897 21.3379 11.38 20.8255 11.6587 20.2528ZM9.71235 22.7571C10.0367 23.0786 10.4617 23.5994 10.8056 24.0173C11.7982 25.2196 12.9725 26.6405 14.2279 27.2867L11.0294 30.0899C10.4779 29.5756 9.24523 27.8718 9.71235 22.7668V22.7571Z" fill="white"></path><path d="M31.322 21.2168C29.3509 21.2168 27.4241 21.7975 25.7852 22.8855C24.1462 23.9735 22.8689 25.5198 22.1146 27.3291C21.3602 29.1383 21.1629 31.1292 21.5474 33.0498C21.932 34.9705 22.8811 36.7348 24.2749 38.1195C25.6687 39.5042 27.4445 40.4473 29.3777 40.8293C31.311 41.2114 33.3148 41.0153 35.1359 40.2659C36.957 39.5165 38.5135 38.2474 39.6085 36.6191C40.7036 34.9908 41.2881 33.0765 41.2881 31.1182C41.2881 28.4922 40.2381 25.9737 38.3691 24.1168C36.5001 22.26 33.9652 21.2168 31.322 21.2168ZM31.322 39.742C29.6053 39.742 27.927 39.2362 26.4996 38.2886C25.0722 37.341 23.9596 35.9942 23.3026 34.4184C22.6456 32.8426 22.4737 31.1086 22.8087 29.4358C23.1436 27.7629 23.9703 26.2263 25.1842 25.0202C26.3982 23.8142 27.9448 22.9928 29.6286 22.6601C31.3124 22.3273 33.0577 22.4981 34.6438 23.1508C36.2299 23.8036 37.5855 24.9089 38.5393 26.3271C39.4931 27.7452 40.0022 29.4126 40.0022 31.1182C40.0022 33.4054 39.0877 35.5988 37.4598 37.2161C35.832 38.8334 33.6241 39.742 31.322 39.742Z" fill="white"></path><path d="M31.3253 23.3389C29.9173 23.3397 28.5355 23.7171 27.3252 24.4315C26.1148 25.1459 25.1206 26.1708 24.4469 27.3986C23.7733 28.6263 23.4451 30.0117 23.4968 31.4089C23.5486 32.8062 23.9784 34.1638 24.741 35.3391C24.741 35.3391 24.741 35.3716 24.7671 35.3878L24.79 35.417C25.505 36.4874 26.4757 37.3655 27.6154 37.9729C28.7551 38.5803 30.0285 38.8982 31.322 38.8982C32.6155 38.8982 33.8889 38.5803 35.0286 37.9729C36.1684 37.3655 37.139 36.4874 37.854 35.417L37.8769 35.3878C37.8769 35.3878 37.8932 35.3554 37.903 35.3391C38.6654 34.1643 39.0952 32.8072 39.1472 31.4105C39.1992 30.0138 38.8716 28.629 38.1987 27.4014C37.5258 26.1738 36.5325 25.1488 35.3231 24.434C34.1137 23.7191 32.7327 23.3409 31.3253 23.3389ZM32.9583 31.1228C32.9583 31.4436 32.8625 31.7571 32.6831 32.0238C32.5036 32.2905 32.2486 32.4983 31.9502 32.621C31.6518 32.7438 31.3235 32.7759 31.0067 32.7133C30.6899 32.6508 30.399 32.4963 30.1706 32.2695C29.9422 32.0427 29.7867 31.7538 29.7237 31.4392C29.6607 31.1246 29.693 30.7986 29.8166 30.5022C29.9402 30.2059 30.1495 29.9527 30.418 29.7745C30.6866 29.5963 31.0023 29.5012 31.3253 29.5012C31.7584 29.5012 32.1738 29.672 32.48 29.9761C32.7862 30.2803 32.9583 30.6927 32.9583 31.1228ZM25.5347 34.1132C25.043 33.1737 24.7905 32.1289 24.799 31.0702C24.8076 30.0114 25.077 28.9708 25.5837 28.0393C26.0904 27.1077 26.8191 26.3135 27.7061 25.726C28.593 25.1384 29.6113 24.7754 30.6721 24.6686V28.2784C30.2649 28.3712 29.8823 28.5491 29.5498 28.8003C29.2174 29.0514 28.9426 29.3701 28.7439 29.735C28.5452 30.0999 28.427 30.5027 28.3974 30.9165C28.3678 31.3303 28.4273 31.7456 28.572 32.1347L25.5347 34.1132ZM31.3253 37.6095C30.3517 37.6083 29.3907 37.391 28.5125 36.9735C27.6344 36.556 26.8613 35.9488 26.2499 35.1964L29.2873 33.2213C29.8349 33.7445 30.5653 34.0368 31.3253 34.0368C32.0852 34.0368 32.8156 33.7445 33.3633 33.2213L36.4007 35.1964C35.7892 35.9488 35.0162 36.556 34.138 36.9735C33.2599 37.391 32.2989 37.6083 31.3253 37.6095ZM37.1159 34.1132L34.0785 32.138C34.2238 31.7486 34.2838 31.333 34.2544 30.9188C34.2251 30.5046 34.1071 30.1014 33.9083 29.7361C33.7095 29.3708 33.4346 29.0518 33.1018 28.8005C32.769 28.5491 32.3861 28.3711 31.9785 28.2784V24.6686C33.0388 24.7756 34.0566 25.1386 34.9432 25.726C35.8298 26.3133 36.5582 27.1072 37.0648 28.0383C37.5715 28.9694 37.841 30.0095 37.8499 31.0678C37.8588 32.1261 37.6068 33.1705 37.1159 34.1099V34.1132Z" fill="white"></path></svg>