<svg xmlns="http://www.w3.org/2000/svg" width="38" height="31" viewBox="0 0 38 31" fill="none"><path d="M33.0303 20.5006C34.1241 19.5729 34.8214 18.1882 34.8214 16.6415C34.8214 15.515 34.4475 14.4756 33.8232 13.6333V5.93077C33.8232 5.61514 33.6111 5.33788 33.3067 5.25591L27.1246 3.60799V0.697535C27.1246 0.312148 26.8133 0 26.429 0L7.39066 0.00174384C7.00635 0.00174384 6.69507 0.313892 6.69507 0.699279V3.60799L0.516492 5.25766C0.212175 5.33961 0 5.61514 0 5.93251V26.4224C0 26.8078 0.311275 27.12 0.695586 27.12H7.37677C7.38198 27.12 7.38546 27.1234 7.39068 27.1234H21.5579V30.3025C21.5579 30.6879 21.8692 31 22.2535 31H37.3044C37.6887 31 38 30.6879 38 30.3025V26.8549C38 23.7822 35.8787 21.205 33.0303 20.5006ZM31.3191 25.059L29.7801 26.5326L28.2412 25.059L28.9767 21.6969H30.5835L31.3191 25.059ZM29.7801 20.3019C27.7664 20.3019 26.1301 18.6592 26.1301 16.6416C26.1301 14.6223 27.7682 12.9813 29.7801 12.9813C31.7938 12.9813 33.4302 14.624 33.4302 16.6416C33.4302 18.6592 31.7921 20.3019 29.7801 20.3019ZM32.432 6.46817V12.3502C31.6599 11.869 30.754 11.5865 29.7801 11.5865C28.8046 11.5865 27.8968 11.8707 27.1248 12.352V5.05386L32.432 6.46817ZM1.39135 6.46817L6.69516 5.05217V25.7256H1.39135V6.46817ZM8.08633 1.39726H25.7335V13.6373C25.111 14.4778 24.7371 15.5154 24.7371 16.6419C24.7371 18.1887 25.4344 19.5733 26.5282 20.501C24.5927 20.9806 22.9963 22.3251 22.1703 24.1038L22.1721 14.9575C22.1721 14.5721 21.8608 14.2599 21.4765 14.2599H12.3468C11.9625 14.2599 11.6512 14.5721 11.6512 14.9575V25.7292H8.08638L8.08633 1.39726ZM13.0425 25.7255V15.6547H20.7809V25.7255H13.0425ZM36.6091 29.6055H22.9494V26.8555C22.9494 24.1979 24.9666 22.0024 27.5454 21.7288L26.7976 25.1449C26.7454 25.3821 26.8202 25.6314 26.9958 25.7989L29.2982 28.0031C29.4339 28.1304 29.606 28.1949 29.7799 28.1949C29.9521 28.1949 30.126 28.1304 30.2599 28.0013L32.5623 25.7971C32.7379 25.6297 32.8144 25.3803 32.7605 25.1432L32.0127 21.727C34.5916 22.0026 36.6087 24.1963 36.6087 26.8538L36.6091 29.6055Z" fill="white"></path></svg>